# xmcd
#
# Track frame offsets: 
#        150
#        6613
#        56371
#        77420
#        93003
#        128158
#        171094
#        191012
#        212217
#        232041
#        266975
#        284094
#        320558
#        340711
#
# Disc length: 4796 seconds
#
# Revision: 0
# Processed by: cddbd v1.5.2PL0 Copyright (c) Steve Scherf et al.
# Submitted via: ExactAudioCopy v0.99pb4
#
DISCID=cd12ba0e
DTITLE=Yonder Mountain String Band - Live at The Station Inn, Nashvill
DTITLE=e, TN 10-14-01 Disc 2 of 2
DYEAR=2001
DGENRE=Bluegrass
TTITLE0=Introduction
TTITLE1=Mother's Only Son
TTITLE2=Mental Breakdown
TTITLE3=Loved you enough
TTITLE4=Yes She Do - No She Don't
TTITLE5=New Horizons
TTITLE6=Fourty Miles fom Denver
TTITLE7=Mossy Cow
TTITLE8=Idaho
TTITLE9=Peace of Mind
TTITLE10=Good Hearted Woman
TTITLE11=Peace of Mind
TTITLE12=Tear Down The Grand Ole Opry
TTITLE13=Ramblin' In The Rambler
EXTD=
EXTT0=
EXTT1=
EXTT2=
EXTT3=
EXTT4=
EXTT5=
EXTT6=
EXTT7=
EXTT8=
EXTT9=
EXTT10=
EXTT11=
EXTT12=
EXTT13=
PLAYORDER=
